# xmcd
#
# Track frame offsets:
#	150
#	21644
#	41292
#	72292
#	93481
#	129283
#	147002
#	163531
#	184296
#
# Disc length: 2775 seconds
#
# Revision: 1
# Processed by: cddbd v1.5.2PL0 Copyright (c) Steve Scherf et al.
# Submitted via: audiograbber 1.83.01
#
DISCID=770ad509
DTITLE=Amdy Macintyre - Set Me Free
DYEAR=1900
DGENRE=
TTITLE0=Cockroach
TTITLE1=Set Me Free
TTITLE2=No Expectations
TTITLE3=Waitin', Achin'
TTITLE4=Doin' Time
TTITLE5=Barnyard Bill
TTITLE6=Leave Me Alone
TTITLE7=Toys
TTITLE8=Black 'n' Blue
EXTD=
EXTT0=
EXTT1=
EXTT2=
EXTT3=
EXTT4=
EXTT5=
EXTT6=
EXTT7=
EXTT8=
PLAYORDER=
